<?xml version="1.0" standalone="no"?>
<!DOCTYPE svg PUBLIC "-//W3C//DTD SVG 20010904//EN"
 "http://www.w3.org/TR/2001/REC-SVG-20010904/DTD/svg10.dtd">
<svg version="1.0" xmlns="http://www.w3.org/2000/svg"
 width="98.000000pt" height="98.000000pt" viewBox="0 0 98.000000 98.000000"
 preserveAspectRatio="xMidYMid meet">
<metadata>
Created by potrace 1.14, written by Peter Selinger 2001-2017
</metadata>
<g transform="translate(0.000000,98.000000) scale(0.100000,-0.100000)"
fill="#000000" stroke="none">
<path d="M300 900 c-67 -72 -64 -244 6 -321 19 -21 9 -38 -48 -88 -36 -32 -40
-33 -57 -17 -21 19 -51 21 -51 3 0 -8 9 -22 19 -31 19 -17 19 -18 -10 -64 -59
-96 -58 -222 2 -295 69 -84 148 -12 155 139 3 72 -7 106 -55 180 -13 19 -10
25 35 67 27 26 52 47 56 47 3 0 29 -21 57 -47 l50 -47 -22 -30 c-38 -51 -52
-97 -50 -169 3 -169 118 -238 177 -107 40 89 19 241 -39 290 -14 12 -10 19 36
62 28 26 55 48 58 48 3 0 28 -21 55 -46 l50 -46 -18 -26 c-41 -64 -51 -97 -50
-172 0 -80 18 -131 58 -162 30 -25 59 -22 88 10 68 73 70 212 4 312 l-24 37
59 59 c32 32 59 64 59 71 0 27 -33 11 -85 -42 -30 -30 -58 -55 -63 -55 -4 0
-30 22 -57 50 -46 46 -48 51 -32 67 31 35 57 107 57 160 0 100 -49 193 -101
193 -30 0 -76 -51 -89 -100 -25 -92 -12 -168 43 -250 17 -26 16 -26 -36 -78
l-53 -52 -52 53 -52 53 25 36 c38 56 47 87 47 154 -1 71 -24 137 -60 164 -34
28 -59 25 -92 -10z m93 -54 c30 -57 28 -149 -4 -206 -13 -25 -30 -45 -38 -45
-7 0 -25 21 -38 47 -38 73 -31 180 15 231 23 25 42 18 65 -27z m268 -1 c29
-66 28 -139 -2 -200 -14 -27 -32 -50 -39 -50 -19 0 -62 86 -63 127 -3 89 29
168 69 168 8 0 24 -20 35 -45z m-404 -511 c22 -48 25 -66 20 -121 -9 -113 -64
-155 -102 -78 -34 70 -22 181 27 243 18 22 29 13 55 -44z m269 1 c23 -48 26
-64 21 -115 -6 -65 -33 -123 -60 -128 -41 -8 -79 125 -58 205 11 41 45 93 61
93 5 0 21 -25 36 -55z m251 28 c33 -49 41 -79 38 -140 -4 -64 -26 -120 -51
-130 -36 -14 -74 63 -74 149 0 44 42 148 60 148 5 0 17 -12 27 -27z"/>
<path d="M924 625 c-4 -9 -2 -21 4 -27 15 -15 44 -1 40 19 -4 23 -36 29 -44 8z"/>
</g>
</svg>
