<svg width="136" height="82" viewBox="0 0 136 82" fill="none" xmlns="http://www.w3.org/2000/svg">
<path fill-rule="evenodd" clip-rule="evenodd" d="M106.624 69.2512C102.867 65.4945 99.8872 61.0347 97.8541 56.1264C95.821 51.2181 94.7746 45.9574 94.7746 40.6447L135.23 40.6447V81.1004C129.917 81.1004 124.657 80.054 119.748 78.0209C114.84 75.9878 110.38 73.0078 106.624 69.2512ZM94.7745 0.189087C100.087 0.189087 105.348 1.2355 110.256 3.26859C115.164 5.30168 119.624 8.28162 123.381 12.0383C127.138 15.7949 130.118 20.2547 132.151 25.163C134.184 30.0713 135.23 35.332 135.23 40.6447L94.7745 40.6447L94.7745 0.189087ZM3.12647 56.1265C5.15956 61.0348 8.1395 65.4946 11.8961 69.2512C15.6528 73.0079 20.1126 75.9878 25.0209 78.0209C29.9292 80.054 35.1899 81.1004 40.5026 81.1004L40.5026 40.6448L0.0469724 40.6448C0.0469722 45.9575 1.09339 51.2182 3.12647 56.1265ZM15.5286 3.26862C10.6203 1.23553 5.35959 0.189113 0.0468788 0.189112L0.046875 40.6447L40.5025 40.6447C40.5025 35.332 39.4561 30.0714 37.423 25.163C35.3899 20.2547 32.41 15.7949 28.6533 12.0383C24.8967 8.28164 20.4369 5.3017 15.5286 3.26862ZM50.4905 56.1265C52.5236 61.0348 55.5035 65.4946 59.2601 69.2512C63.0168 73.0079 67.4766 75.9878 72.3849 78.0209C77.2932 80.054 82.5539 81.1004 87.8666 81.1004V40.6448L47.411 40.6448C47.411 45.9575 48.4574 51.2182 50.4905 56.1265ZM62.8926 3.26862C57.9843 1.23553 52.7236 0.189113 47.4109 0.189112L47.4109 40.6447L87.8665 40.6447C87.8665 35.332 86.8201 30.0714 84.787 25.163C82.7539 20.2547 79.774 15.7949 76.0173 12.0383C72.2607 8.28164 67.8009 5.3017 62.8926 3.26862Z" fill="url(#paint0_linear_67_5455)"/>
<defs>
<linearGradient id="paint0_linear_67_5455" x1="-44.0929" y1="-54.4264" x2="119.812" y2="-106.081" gradientUnits="userSpaceOnUse">
<stop stop-color="#EB334A"/>
<stop offset="1" stop-color="#29214B"/>
</linearGradient>
</defs>
</svg>
