<svg width="34" height="32" viewBox="0 0 34 32" fill="none" xmlns="http://www.w3.org/2000/svg">
<path fill-rule="evenodd" clip-rule="evenodd" d="M15.4572 31.0641C13.4743 31.0641 11.5107 30.6736 9.67876 29.9147C7.84678 29.1559 6.18219 28.0437 4.78005 26.6415C3.37791 25.2394 2.26567 23.5748 1.50684 21.7428C0.748005 19.9108 0.357439 17.9473 0.357439 15.9644L15.4572 15.9644V31.0641ZM0.357426 0.864563C2.34035 0.864563 4.30386 1.25513 6.13585 2.01396C7.96783 2.7728 9.63242 3.88504 11.0346 5.28718C12.4367 6.68932 13.5489 8.3539 14.3078 10.1859C15.0666 12.0179 15.4572 13.9814 15.4572 15.9643L0.357422 15.9643L0.357426 0.864563ZM33.1353 31.0641C31.1523 31.0641 29.1888 30.6736 27.3568 29.9147C25.5249 29.1559 23.8603 28.0437 22.4581 26.6415C21.056 25.2394 19.9437 23.5748 19.1849 21.7428C18.4261 19.9108 18.0355 17.9473 18.0355 15.9644L33.1353 15.9644V31.0641ZM18.0355 0.864563C20.0184 0.864563 21.9819 1.25513 23.8139 2.01396C25.6459 2.7728 27.3105 3.88504 28.7126 5.28718C30.1148 6.68932 31.227 8.3539 31.9858 10.1859C32.7447 12.0179 33.1352 13.9814 33.1352 15.9643L18.0355 15.9643L18.0355 0.864563Z" fill="white"/>
</svg>
