<svg width="94" height="57" viewBox="0 0 94 57" fill="none" xmlns="http://www.w3.org/2000/svg">
<path opacity="0.25" fill-rule="evenodd" clip-rule="evenodd" d="M10.9114 2.67986C7.51282 1.27211 3.87021 0.547546 0.191586 0.547546L0.191581 28.5599L28.2039 28.5599C28.2039 24.8812 27.4793 21.2386 26.0716 17.84C24.6638 14.4414 22.6005 11.3533 19.9993 8.75216C17.3981 6.15098 14.31 4.08761 10.9114 2.67986ZM17.4839 54.4399C20.8825 55.8477 24.5251 56.5722 28.2037 56.5722V28.5599L0.191406 28.5599C0.191406 32.2385 0.915966 35.8811 2.32372 39.2798C3.73147 42.6784 5.79484 45.7664 8.39602 48.3676C10.9972 50.9688 14.0853 53.0322 17.4839 54.4399ZM43.711 2.67986C40.3124 1.27211 36.6698 0.547546 32.9912 0.547546L32.9912 28.5599L61.0035 28.5599C61.0035 24.8812 60.2789 21.2386 58.8712 17.84C57.4634 14.4414 55.4 11.3533 52.7989 8.75216C50.1977 6.15098 47.1096 4.08761 43.711 2.67986ZM50.2835 54.4399C53.6821 55.8477 57.3247 56.5722 61.0033 56.5722L61.0033 28.5599L32.991 28.5599C32.991 32.2385 33.7156 35.8811 35.1233 39.2798C36.5311 42.6784 38.5944 45.7664 41.1956 48.3676C43.7968 50.9688 46.8848 53.0322 50.2835 54.4399ZM65.7865 0.547546C69.4652 0.547546 73.1078 1.27211 76.5064 2.67986C79.905 4.08761 82.993 6.15098 85.5942 8.75216C88.1954 11.3533 90.2588 14.4414 91.6665 17.84C93.0743 21.2386 93.7988 24.8812 93.7988 28.5599L65.7865 28.5599L65.7865 0.547546ZM93.7987 28.5599V56.5722C90.12 56.5722 86.4774 55.8477 83.0788 54.4399C79.6802 53.0322 76.5921 50.9688 73.991 48.3676C71.3898 45.7664 69.3264 42.6784 67.9187 39.2798C66.5109 35.8811 65.7863 32.2385 65.7863 28.5599L93.7987 28.5599Z" fill="white"/>
</svg>
