<svg width="68" height="41" viewBox="0 0 68 41" fill="none" xmlns="http://www.w3.org/2000/svg">
<path fill-rule="evenodd" clip-rule="evenodd" d="M12.5821 38.5315C15.0108 39.5375 17.6139 40.0552 20.2427 40.0552L20.2427 20.0372H0.22463C0.22463 22.666 0.742412 25.2691 1.74841 27.6978C2.75441 30.1265 4.22893 32.3332 6.08778 34.1921C7.94663 36.0509 10.1534 37.5255 12.5821 38.5315ZM7.88519 1.54283C5.45649 0.536828 2.85342 0.0190451 0.224612 0.019043L0.224609 20.0371L20.2427 20.0371C20.2427 17.4083 19.7249 14.8052 18.7189 12.3765C17.7129 9.94782 16.2384 7.74104 14.3795 5.8822C12.5207 4.02335 10.3139 2.54883 7.88519 1.54283ZM36.0172 38.5315C38.4459 39.5375 41.049 40.0552 43.6778 40.0552V20.0372H23.6597C23.6597 22.666 24.1775 25.2691 25.1835 27.6978C26.1895 30.1265 27.664 32.3332 29.5229 34.1921C31.3817 36.0509 33.5885 37.5255 36.0172 38.5315ZM31.3203 1.54283C28.8916 0.536828 26.2885 0.0190451 23.6597 0.019043L23.6597 20.0371L43.6778 20.0371C43.6778 17.4083 43.16 14.8052 42.154 12.3765C41.148 9.94782 39.6735 7.74104 37.8146 5.8822C35.9558 4.02335 33.749 2.54883 31.3203 1.54283ZM67.1154 40.0552C64.4866 40.0552 61.8836 39.5375 59.4549 38.5315C57.0262 37.5255 54.8194 36.0509 52.9605 34.1921C51.1017 32.3332 49.6272 30.1265 48.6212 27.6978C47.6152 25.2691 47.0974 22.666 47.0974 20.0372H67.1154V40.0552ZM47.0967 0.019043C49.7255 0.0190451 52.3285 0.536828 54.7572 1.54283C57.1859 2.54883 59.3927 4.02335 61.2516 5.8822C63.1104 7.74104 64.5849 9.94782 65.5909 12.3765C66.5969 14.8052 67.1147 17.4083 67.1147 20.0371L47.0967 20.0371L47.0967 0.019043Z" fill="white"/>
</svg>
