<svg width="44" height="40" viewBox="0 0 44 40" fill="none" xmlns="http://www.w3.org/2000/svg">
<path d="M19.8906 39.5V35.1667H37.224V19.7833C37.224 17.6889 36.8267 15.7208 36.0323 13.8792C35.2378 12.0375 34.1545 10.4306 32.7823 9.05833C31.4101 7.68611 29.8031 6.60278 27.9615 5.80833C26.1198 5.01389 24.1517 4.61667 22.0573 4.61667C19.9628 4.61667 17.9948 5.01389 16.1531 5.80833C14.3115 6.60278 12.7045 7.68611 11.3323 9.05833C9.96007 10.4306 8.87674 12.0375 8.08229 13.8792C7.28785 15.7208 6.89062 17.6889 6.89062 19.7833V33H4.72396C3.53229 33 2.51215 32.5757 1.66354 31.7271C0.81493 30.8785 0.390625 29.8583 0.390625 28.6667V24.3333C0.390625 23.5028 0.589236 22.7715 0.986458 22.1396C1.38368 21.5076 1.90729 20.9931 2.55729 20.5958L2.71979 17.725C3.04479 15.0889 3.7941 12.7056 4.96771 10.575C6.14132 8.44444 7.60382 6.63889 9.35521 5.15833C11.1066 3.67778 13.0747 2.53125 15.2594 1.71875C17.4441 0.90625 19.7101 0.5 22.0573 0.5C24.4406 0.5 26.7247 0.90625 28.9094 1.71875C31.0941 2.53125 33.0531 3.68681 34.7865 5.18542C36.5198 6.68403 37.9733 8.48958 39.1469 10.6021C40.3205 12.7146 41.0698 15.0708 41.3948 17.6708L41.5573 20.4875C42.2073 20.8125 42.7309 21.291 43.1281 21.9229C43.5253 22.5549 43.724 23.25 43.724 24.0083V28.9917C43.724 29.7861 43.5253 30.4903 43.1281 31.1042C42.7309 31.7181 42.2073 32.1875 41.5573 32.5125V35.1667C41.5573 36.3583 41.133 37.3785 40.2844 38.2271C39.4358 39.0757 38.4156 39.5 37.224 39.5H19.8906ZM15.5573 24.3333C14.9434 24.3333 14.4288 24.1257 14.0135 23.7104C13.5983 23.2951 13.3906 22.7806 13.3906 22.1667C13.3906 21.5528 13.5983 21.0382 14.0135 20.6229C14.4288 20.2076 14.9434 20 15.5573 20C16.1712 20 16.6858 20.2076 17.101 20.6229C17.5163 21.0382 17.724 21.5528 17.724 22.1667C17.724 22.7806 17.5163 23.2951 17.101 23.7104C16.6858 24.1257 16.1712 24.3333 15.5573 24.3333ZM28.5573 24.3333C27.9434 24.3333 27.4288 24.1257 27.0135 23.7104C26.5983 23.2951 26.3906 22.7806 26.3906 22.1667C26.3906 21.5528 26.5983 21.0382 27.0135 20.6229C27.4288 20.2076 27.9434 20 28.5573 20C29.1712 20 29.6858 20.2076 30.101 20.6229C30.5163 21.0382 30.724 21.5528 30.724 22.1667C30.724 22.7806 30.5163 23.2951 30.101 23.7104C29.6858 24.1257 29.1712 24.3333 28.5573 24.3333ZM9.11146 20.975C8.96701 18.8444 9.26493 16.9125 10.0052 15.1792C10.7455 13.4458 11.7385 11.9743 12.9844 10.7646C14.2302 9.55486 15.6656 8.625 17.2906 7.975C18.9156 7.325 20.5406 7 22.1656 7C25.4517 7 28.2955 8.03819 30.6969 10.1146C33.0983 12.191 34.5517 14.7819 35.0573 17.8875C31.6628 17.8514 28.5934 16.9396 25.849 15.1521C23.1045 13.3646 21.0281 11.0444 19.6198 8.19167C19.042 11.1167 17.8233 13.7076 15.9635 15.9646C14.1038 18.2215 11.8198 19.8917 9.11146 20.975Z" fill="white"/>
</svg>
