<svg width="44" height="44" viewBox="0 0 44 44" fill="none" xmlns="http://www.w3.org/2000/svg">
<path d="M24.224 34.9997C26.0656 34.9997 27.6094 34.3677 28.8552 33.1038C30.101 31.84 30.724 30.3052 30.724 28.4997H26.3906C26.3906 29.1136 26.183 29.6281 25.7677 30.0434C25.3524 30.4587 24.8378 30.6663 24.224 30.6663C23.7545 30.6663 23.3392 30.5309 22.9781 30.2601C22.617 29.9893 22.3462 29.6191 22.1656 29.1497C21.949 28.5358 21.6872 27.9309 21.3802 27.3351C21.0733 26.7393 20.667 26.1886 20.1615 25.683L17.2365 22.758C16.6948 22.2163 16.2795 21.5934 15.9906 20.8893C15.7017 20.1851 15.5573 19.4719 15.5573 18.7497C15.5573 17.233 16.0809 15.9511 17.1281 14.9038C18.1753 13.8566 19.4573 13.333 20.974 13.333C22.274 13.333 23.4205 13.7393 24.4135 14.5518C25.4066 15.3643 26.0295 16.4025 26.2823 17.6663H30.6698C30.3809 15.1747 29.3156 13.1073 27.474 11.4643C25.6323 9.8212 23.4656 8.99967 20.974 8.99967C18.2656 8.99967 15.9635 9.94759 14.0677 11.8434C12.1719 13.7393 11.224 16.0413 11.224 18.7497C11.224 20.0858 11.4767 21.3587 11.9823 22.5684C12.4878 23.7781 13.2101 24.8525 14.149 25.7913L17.1281 28.7705C17.3809 29.0233 17.5705 29.3031 17.6969 29.6101C17.8233 29.917 17.9406 30.233 18.049 30.558C18.5184 31.858 19.3219 32.9233 20.4594 33.7538C21.5969 34.5844 22.8517 34.9997 24.224 34.9997ZM25.3073 26.333C26.2462 26.333 27.0226 26.017 27.6365 25.3851C28.2503 24.7531 28.5573 23.9858 28.5573 23.083C28.5573 22.1441 28.2503 21.3677 27.6365 20.7538C27.0226 20.14 26.2462 19.833 25.3073 19.833C24.4045 19.833 23.6372 20.14 23.0052 20.7538C22.3733 21.3677 22.0573 22.1441 22.0573 23.083C22.0573 23.9858 22.3733 24.7531 23.0052 25.3851C23.6372 26.017 24.4045 26.333 25.3073 26.333ZM22.0573 43.6663C19.0601 43.6663 16.2434 43.0976 13.6073 41.9601C10.9712 40.8226 8.67812 39.2788 6.72812 37.3288C4.77812 35.3788 3.23437 33.0858 2.09687 30.4497C0.959375 27.8136 0.390625 24.9969 0.390625 21.9997C0.390625 19.0025 0.959375 16.1858 2.09687 13.5497C3.23437 10.9136 4.77812 8.62051 6.72812 6.67051C8.67812 4.72051 10.9712 3.17676 13.6073 2.03926C16.2434 0.901758 19.0601 0.333008 22.0573 0.333008C25.0545 0.333008 27.8712 0.901758 30.5073 2.03926C33.1434 3.17676 35.4365 4.72051 37.3865 6.67051C39.3365 8.62051 40.8802 10.9136 42.0177 13.5497C43.1552 16.1858 43.724 19.0025 43.724 21.9997C43.724 24.9969 43.1552 27.8136 42.0177 30.4497C40.8802 33.0858 39.3365 35.3788 37.3865 37.3288C35.4365 39.2788 33.1434 40.8226 30.5073 41.9601C27.8712 43.0976 25.0545 43.6663 22.0573 43.6663ZM22.0573 39.333C26.8962 39.333 30.9948 37.6538 34.3531 34.2955C37.7115 30.9372 39.3906 26.8386 39.3906 21.9997C39.3906 17.1608 37.7115 13.0622 34.3531 9.70384C30.9948 6.34551 26.8962 4.66634 22.0573 4.66634C17.2184 4.66634 13.1198 6.34551 9.76146 9.70384C6.40312 13.0622 4.72396 17.1608 4.72396 21.9997C4.72396 26.8386 6.40312 30.9372 9.76146 34.2955C13.1198 37.6538 17.2184 39.333 22.0573 39.333Z" fill="white"/>
</svg>
