<svg width="40" height="52" viewBox="0 0 40 52" fill="none" xmlns="http://www.w3.org/2000/svg">
<path d="M20 8.66667C18.8083 8.66667 17.7882 8.24236 16.9396 7.39375C16.091 6.54514 15.6667 5.525 15.6667 4.33333C15.6667 3.14167 16.091 2.12153 16.9396 1.27292C17.7882 0.424306 18.8083 0 20 0C21.1917 0 22.2118 0.424306 23.0604 1.27292C23.909 2.12153 24.3333 3.14167 24.3333 4.33333C24.3333 5.525 23.909 6.54514 23.0604 7.39375C22.2118 8.24236 21.1917 8.66667 20 8.66667ZM13.5 41.1667V15.1667C11.3333 14.9861 9.13056 14.7153 6.89167 14.3542C4.65278 13.9931 2.52222 13.5417 0.5 13L1.58333 8.66667C4.4 9.425 7.39722 9.97569 10.575 10.3188C13.7528 10.6618 16.8944 10.8333 20 10.8333C23.1056 10.8333 26.2472 10.6618 29.425 10.3188C32.6028 9.97569 35.6 9.425 38.4167 8.66667L39.5 13C37.4778 13.5417 35.3472 13.9931 33.1083 14.3542C30.8694 14.7153 28.6667 14.9861 26.5 15.1667V41.1667H22.1667V28.1667H17.8333V41.1667H13.5ZM11.3333 52C10.7194 52 10.2049 51.7924 9.78958 51.3771C9.37431 50.9618 9.16667 50.4472 9.16667 49.8333C9.16667 49.2194 9.37431 48.7049 9.78958 48.2896C10.2049 47.8743 10.7194 47.6667 11.3333 47.6667C11.9472 47.6667 12.4618 47.8743 12.8771 48.2896C13.2924 48.7049 13.5 49.2194 13.5 49.8333C13.5 50.4472 13.2924 50.9618 12.8771 51.3771C12.4618 51.7924 11.9472 52 11.3333 52ZM20 52C19.3861 52 18.8715 51.7924 18.4562 51.3771C18.041 50.9618 17.8333 50.4472 17.8333 49.8333C17.8333 49.2194 18.041 48.7049 18.4562 48.2896C18.8715 47.8743 19.3861 47.6667 20 47.6667C20.6139 47.6667 21.1285 47.8743 21.5438 48.2896C21.959 48.7049 22.1667 49.2194 22.1667 49.8333C22.1667 50.4472 21.959 50.9618 21.5438 51.3771C21.1285 51.7924 20.6139 52 20 52ZM28.6667 52C28.0528 52 27.5382 51.7924 27.1229 51.3771C26.7076 50.9618 26.5 50.4472 26.5 49.8333C26.5 49.2194 26.7076 48.7049 27.1229 48.2896C27.5382 47.8743 28.0528 47.6667 28.6667 47.6667C29.2806 47.6667 29.7951 47.8743 30.2104 48.2896C30.6257 48.7049 30.8333 49.2194 30.8333 49.8333C30.8333 50.4472 30.6257 50.9618 30.2104 51.3771C29.7951 51.7924 29.2806 52 28.6667 52Z" fill="white"/>
</svg>
