<svg width="1312" height="582" viewBox="0 0 1312 582" fill="none" xmlns="http://www.w3.org/2000/svg">
<path opacity="0.4" fillaRule="evenodd" clip-rule="evenodd" d="M-78.6415 844.716L7.65404 846.547L-5.78494 917.573C-51.0286 914.287 -82.9412 882.374 -78.6415 844.716ZM107.396 777.347C159.157 776.913 230.14 773.963 310.833 764.21C480.175 743.744 682.989 694.446 843.135 583.339C1014.38 464.529 1140.27 333.501 1207.25 220.406C1277.44 101.882 1270.43 27.8819 1236.52 -6.0284C1202.61 -39.9387 1116.5 -59.0567 963.86 -22.9815C818.211 11.4412 640.737 90.8822 469.488 209.692C309.343 320.8 214.467 478.036 159.686 613.064C133.583 677.405 117.266 735.023 107.396 777.347ZM-5.78494 917.573C-5.81476 917.571 -5.78494 917.573 7.65404 846.547C-78.6415 844.716 -78.6443 844.741 -78.6415 844.716L-78.6122 844.463L-78.5629 844.049L-78.4017 842.741C-78.2652 841.659 -78.0696 840.16 -77.8066 838.263C-77.2807 834.47 -76.4852 829.082 -75.3556 822.255C-73.0973 808.609 -69.4972 789.176 -64.034 765.217C-53.1275 717.387 -34.6877 651.038 -4.40841 576.403C55.5758 428.55 165.027 240.768 363.125 103.329C550.12 -26.4058 750.701 -118.254 926.685 -159.846C1095.68 -199.785 1274.77 -199.643 1373.41 -101.003C1472.06 -2.36186 1439.84 144.383 1362.13 275.603C1281.21 412.253 1136.49 559.967 949.498 689.702C751.4 827.141 509.883 882.856 324.455 905.267C230.854 916.579 149.176 919.69 90.727 919.978C61.4488 920.122 37.8522 919.559 21.3308 918.942C13.0662 918.633 6.55994 918.31 1.98566 918.055C-0.30186 917.928 -2.10742 917.817 -3.40942 917.733L-4.98251 917.629L-5.48105 917.594L-5.65744 917.582L-5.78494 917.573Z" fill="url(#paint0_linear_630_4191)"/>
<defs>
<linearGradient id="paint0_linear_630_4191" x1="-60.792" y1="894.034" x2="1153.83" y2="-320.588" gradientUnits="userSpaceOnUse">
<stop stop-color="#D8D5E3"/>
<stop offset="1" stop-color="#D8D5E3" stop-opacity="0"/>
</linearGradient>
</defs>
</svg>
