<svg width="42" height="42" viewBox="0 0 42 42" fill="none" xmlns="http://www.w3.org/2000/svg">
<path d="M30.3 22.1004C28.7333 20.7004 27.2417 19.3337 25.825 18.0004C24.4083 16.6671 23.1678 15.368 22.1033 14.1031C21.0388 12.8382 20.1888 11.6139 19.5533 10.4301C18.9178 9.24634 18.6 8.10309 18.6 7.00039C18.6 5.27512 19.187 3.82714 20.361 2.65644C21.535 1.48574 22.987 0.900391 24.7171 0.900391C25.7057 0.900391 26.6917 1.17539 27.675 1.72539C28.6583 2.27539 29.5333 3.01706 30.3 3.95039C31.0667 3.01706 31.9417 2.27539 32.925 1.72539C33.9083 1.17539 34.8943 0.900391 35.8829 0.900391C37.613 0.900391 39.0651 1.48574 40.2391 2.65644C41.413 3.82714 42 5.27512 42 7.00039C42 8.10309 41.6823 9.24634 41.0467 10.4301C40.4112 11.6139 39.5612 12.8382 38.4967 14.1031C37.4323 15.368 36.1887 16.6699 34.7662 18.0089C33.3436 19.3479 31.8549 20.7118 30.3 22.1004ZM30.3 17.9504C32.5 15.9504 34.5 13.9671 36.3 12.0004C38.1 10.0337 39 8.36706 39 7.00039C39 6.08629 38.7107 5.34109 38.1322 4.76479C37.5537 4.18852 36.8056 3.90039 35.8879 3.90039C35.3293 3.90039 34.775 4.03372 34.225 4.30039C33.675 4.56706 33.1167 5.06706 32.55 5.80039L30.3 8.55039L28.05 5.80039C27.4833 5.06706 26.925 4.56706 26.375 4.30039C25.825 4.03372 25.2707 3.90039 24.7121 3.90039C23.7944 3.90039 23.0463 4.18852 22.4678 4.76479C21.8893 5.34109 21.6 6.08629 21.6 7.00039C21.6 8.36706 22.5 10.0337 24.3 12.0004C26.1 13.9671 28.1 15.9504 30.3 17.9504ZM26.3 41.9004L10.75 37.4504V40.3004H0V20.6004H15.45L28.2 25.4004C29.1 25.7337 29.8583 26.2754 30.475 27.0254C31.0917 27.7754 31.4 28.8504 31.4 30.2504H37.1C38.5 30.2504 39.6667 30.7504 40.6 31.7504C41.5333 32.7504 42 34.1004 42 35.8004V37.1004L26.3 41.9004ZM3 37.3004H7.7V23.6004H3V37.3004ZM26.1 38.8004L38.9 34.9004C38.7 34.2671 38.45 33.8337 38.15 33.6004C37.85 33.3671 37.5 33.2504 37.1 33.2504H26.75C25.75 33.2504 24.825 33.1837 23.975 33.0504C23.125 32.9171 22.3167 32.7337 21.55 32.5004L17.5 31.2504L18.6 28.3504L22.25 29.5504C23.0833 29.8171 23.875 30.0004 24.625 30.1004C25.375 30.2004 26.5667 30.2504 28.2 30.2504C28.2 29.8504 28.125 29.4587 27.975 29.0754C27.825 28.6921 27.5667 28.4171 27.2 28.2504L14.95 23.6004H10.75V34.3004L26.1 38.8004Z" fill="#EB334A"/>
</svg>
